<svg width="300" height="300" viewBox="0 0 300 300" fill="none" xmlns="http://www.w3.org/2000/svg">
<path d="M150 0C67.1596 0 0 67.1596 0 150C0 232.84 67.1596 300 150 300C232.84 300 300 232.84 300 150C300 67.1596 232.84 0 150 0ZM290.246 150C290.246 227.452 227.461 290.246 150 290.246C72.5394 290.246 9.75423 227.452 9.75423 150C9.75423 72.5482 72.5482 9.75423 150 9.75423C227.452 9.75423 290.246 72.5482 290.246 150Z" fill="white"/>
<path d="M150 61.0477V65.9248C196.355 65.9248 234.075 103.637 234.075 150H238.952C238.952 100.876 199.124 61.0477 150 61.0477ZM150 234.075C103.645 234.075 65.9248 196.363 65.9248 150H61.0477C61.0477 199.124 100.876 238.952 150 238.952" fill="white"/>
<path d="M222.698 86.3594C224.735 88.5466 227.672 92.0743 229.321 94.2174L259.695 74.9383C258.178 72.9539 255.762 69.9377 253.954 67.8122L234.719 80.5298L233.405 81.6586L234.384 80.2299L242.877 63.2791L236.871 57.2731L219.911 65.7661L218.482 66.7451L219.62 65.431L232.347 46.2047C230.106 44.2997 227.954 42.5535 225.212 40.4369L205.932 70.7843C208.375 72.6629 211.595 75.4233 213.649 77.3019L231.8 67.8828L232.964 67.0273L232.108 68.1914L222.698 86.3594Z" fill="white"/>
<path d="M153.775 47.8981L162.074 29.3068L162.603 27.6576L162.453 29.3774L163.326 54.2215C166.236 54.4949 169.244 54.9006 172.207 55.3945L170.858 18.6001C166.713 18.1415 162.585 17.8152 158.458 17.6388L150.282 37.9322L149.991 39.4403L149.7 37.9322L141.533 17.6388C137.406 17.8152 133.278 18.1415 129.133 18.6001L127.784 55.3945C130.747 54.9006 133.755 54.5038 136.665 54.2215L137.538 29.3774L137.388 27.6576L137.917 29.3068L146.216 47.8981H153.775Z" fill="white"/>
<path d="M86.6504 77.2225C91.4481 72.169 94.1645 66.3306 89.3668 60.7567C86.7562 57.7317 82.373 57.0702 78.7394 58.5607L78.3778 58.7018L78.4925 58.3843C79.0305 56.9467 79.3744 52.3607 75.4674 49.1945C73.5624 47.6511 71.1724 47.0778 68.7559 47.3248C64.2492 47.7834 60.7832 50.8614 51.3464 61.3829C48.4978 64.5579 44.3527 69.5673 41.8656 72.8128L67.7858 97.4012C76.3758 87.8939 79.8771 84.3574 86.6504 77.2225ZM52.8281 71.2077C58.0492 64.8224 63.5965 59.0281 66.1101 56.7351C66.9038 56.0119 67.7681 55.2887 68.8176 55.0065C70.5198 54.539 72.2748 55.7473 72.6717 57.4935C73.0686 59.2486 71.9661 60.9155 70.7402 62.2913C67.9798 65.4045 57.8551 75.9966 57.8551 75.9966L52.8281 71.2077ZM62.9792 80.8384C62.9792 80.8384 72.8393 70.4139 76.0583 67.0802C77.3371 65.7573 78.1573 64.9547 79.0393 64.5226C80.177 63.967 81.4205 63.8523 82.5318 64.5931C83.6254 65.3251 84.1281 66.5863 83.8547 67.8387C83.5283 69.3291 82.3113 70.7491 81.3059 71.8338C79.9477 73.289 68.2532 85.8037 68.2355 85.8214L62.9792 80.8384Z" fill="white"/>
<circle cx="149.95" cy="149.95" r="88.95" fill="white"/>
<path d="M149.952 61V149.952H61C61 100.793 100.793 61 149.952 61Z" fill="#0066B1"/>
<path d="M238.905 149.952C238.905 199.111 199.111 238.905 149.952 238.905V149.952H238.905Z" fill="#0066B1"/>
</svg>
