<svg width="210" height="300" viewBox="0 0 210 300" fill="none" xmlns="http://www.w3.org/2000/svg">
<path fill-rule="evenodd" clip-rule="evenodd" d="M105 0C47.0125 0 0.000147316 47.1819 0.000147316 105.396C-0.0270177 130.582 3.69456 148.036 17.9436 170.932C32.1926 193.814 105 300 105 300C105 300 177.808 193.814 192.057 170.932C206.306 148.036 210.027 130.582 210 105.396C210 47.1819 162.988 0 105 0ZM105.236 159.546H105H104.764C75.8627 159.546 52.4608 137.443 52.5001 106.98C52.5395 76.5036 76.0071 54.5455 104.921 54.5455H105H105.092C133.993 54.5455 157.461 76.5036 157.5 106.98C157.553 137.443 134.138 159.546 105.236 159.546Z" fill="#6F6F6F"/>
</svg>
