<svg width="300" height="300" viewBox="0 0 300 300" fill="none" xmlns="http://www.w3.org/2000/svg">
<path d="M132.45 0C59.3819 0 0 59.3819 0 132.45C0 205.519 59.3819 264.901 132.45 264.901C161.794 264.835 190.27 254.941 213.333 236.799L276.534 300L300 276.534L236.799 213.333C254.94 190.269 264.833 161.794 264.901 132.45C264.901 59.3819 205.519 0 132.45 0ZM132.45 22.0751C146.945 22.0751 161.298 24.93 174.689 30.4769C188.08 36.0238 200.248 44.1539 210.497 54.4032C220.747 64.6525 228.877 76.8202 234.424 90.2115C239.971 103.603 242.826 117.956 242.826 132.45C242.826 146.945 239.971 161.298 234.424 174.689C228.877 188.08 220.747 200.248 210.497 210.497C200.248 220.747 188.08 228.877 174.689 234.424C161.298 239.971 146.945 242.826 132.45 242.826C103.177 242.826 75.1026 231.197 54.4032 210.497C33.7038 189.798 22.0751 161.724 22.0751 132.45C22.0751 103.177 33.7038 75.1026 54.4032 54.4032C75.1026 33.7038 103.177 22.0751 132.45 22.0751Z" fill="white"/>
</svg>
