<svg width="278" height="300" viewBox="0 0 278 300" fill="none" xmlns="http://www.w3.org/2000/svg">
<path d="M276.224 260.514C266.443 226.383 244.268 197.529 214.907 179.019C209.114 175.366 201.598 175.961 196.459 180.488C180.703 194.364 161.2 202.628 140.032 202.628C118.445 202.628 98.5959 194.043 82.6779 179.671C77.5959 175.084 70.1169 174.393 64.2744 177.961C34.0494 196.416 11.1729 225.717 1.19639 260.514C-1.48411 269.849 0.399915 279.913 6.24242 287.677C12.0999 295.431 21.2499 300 30.9624 300H246.454C256.174 300 265.327 295.449 271.183 287.677C277.036 279.912 278.905 269.859 276.224 260.514Z" fill="white"/>
<path d="M216.848 90.7185C216.848 140.823 182.455 181.445 140.032 181.445C97.612 181.445 63.223 140.823 63.223 90.7185C63.223 40.6095 97.6105 0 140.032 0C182.455 0 216.848 40.6095 216.848 90.7185Z" fill="white"/>
</svg>
